<svg width="132" height="35" viewBox="0 0 132 35" fill="none" xmlns="http://www.w3.org/2000/svg">
<g clip-path="url(#clip0_2008_471)">
<path d="M47.5837 14.9721C47.5837 15.5898 47.5463 16.1989 47.4716 16.7936C47.1297 19.526 46.0351 22.0228 44.3974 24.0684C43.7883 24.8327 43.0987 25.5337 42.346 26.1601L41.1392 24.0684L36.9416 16.7936L35.12 13.6389L34.8384 13.1505H31.1953L30.9137 13.6389L29.095 16.7936L24.8945 24.0656H29.1008L31.1982 20.4339L33.0197 17.2792L34.8413 20.4339L36.9387 24.0656L39.2774 28.1282C37.9012 28.7861 36.4072 29.2343 34.8356 29.4297C34.4132 29.4814 33.9822 29.5159 33.5513 29.5303H32.4796C32.0457 29.5159 31.6176 29.4814 31.1953 29.4297C29.6237 29.2343 28.1296 28.7861 26.7534 28.1311C25.6472 27.6024 24.6158 26.9387 23.6849 26.1601C22.9321 25.5337 22.2454 24.8327 21.6335 24.0684C19.9958 22.0228 18.9011 19.526 18.5592 16.7936C18.4845 16.196 18.4471 15.5898 18.4471 14.9721C18.4471 14.3543 18.4845 13.7481 18.5592 13.1505C19.3809 6.56236 24.6072 1.33612 31.1953 0.514396C31.7929 0.439695 32.3991 0.402344 33.0169 0.402344C33.6346 0.402344 34.2408 0.439695 34.8384 0.514396C41.4294 1.33612 46.6528 6.55949 47.4745 13.1505C47.5463 13.7481 47.5837 14.3543 47.5837 14.9721Z" fill="#2C67FF"/>
<path d="M44.2942 29.5302H40.0908L39.2777 28.1281L36.9332 24.0655L34.8387 20.4338L33.0172 17.2791L31.1956 20.4338L29.0982 24.0655H24.8948L29.0924 16.7935L30.914 13.6388L31.1956 13.1504H34.8387L35.1203 13.6388L36.9419 16.7935L41.1395 24.0655L42.3491 26.1571L44.2942 29.5302Z" fill="white"/>
</g>
<path d="M55.9887 27.7222V22.1688L50.0371 13.0528H54.1865L57.8957 19.0672L61.6469 13.0528H65.5657L59.5932 22.1478V27.7222H55.9887ZM73.4717 27.7222V13.0528H80.5968C81.6027 13.0528 82.4968 13.2554 83.2792 13.6605C84.0616 14.0517 84.6693 14.6035 85.1024 15.3161C85.5494 16.0146 85.773 16.8179 85.773 17.726C85.773 18.6621 85.5215 19.4933 85.0186 20.2198C84.5296 20.9323 83.8729 21.4702 83.0487 21.8335L86.1292 27.7222H82.1056L79.4442 22.3364H77.0761V27.7222H73.4717ZM77.0761 19.5073H80.2615C80.8203 19.5073 81.2674 19.3466 81.6027 19.0253C81.952 18.704 82.1266 18.2849 82.1266 17.7679C82.1266 17.2371 81.952 16.8179 81.6027 16.5106C81.2674 16.1892 80.8203 16.0286 80.2615 16.0286H77.0761V19.5073ZM100.696 27.9317C99.3832 27.9317 98.2376 27.6663 97.2596 27.1354C96.2817 26.5905 95.5272 25.8291 94.9964 24.8512C94.4655 23.8592 94.2 22.6927 94.2 21.3515V13.0528H97.8045V21.3515C97.8045 22.0221 97.9232 22.6088 98.1607 23.1118C98.3983 23.6147 98.7336 24.0059 99.1666 24.2853C99.5997 24.5648 100.11 24.7045 100.696 24.7045C101.283 24.7045 101.793 24.5648 102.226 24.2853C102.659 24.0059 102.995 23.6147 103.232 23.1118C103.47 22.6088 103.588 22.0221 103.588 21.3515V13.0528H107.193V21.3515C107.193 22.6927 106.927 23.8592 106.397 24.8512C105.866 25.8291 105.111 26.5905 104.133 27.1354C103.169 27.6663 102.024 27.9317 100.696 27.9317ZM116.457 27.7222V13.0528H119.851L126.369 21.9382L126.306 13.0528H129.701V27.7222H126.516L119.789 18.5433L119.851 27.7222H116.457Z" fill="#323232"/>
<path d="M2.45576 27.7222V13.0528H9.6228C10.6706 13.0528 11.5787 13.2623 12.3471 13.6815C13.1295 14.1006 13.7302 14.6734 14.1494 15.3999C14.5824 16.1264 14.799 16.9576 14.799 17.8937C14.799 18.7738 14.5824 19.5702 14.1494 20.2827C13.7302 20.9952 13.1295 21.561 12.3471 21.9802C11.5787 22.3993 10.6706 22.6088 9.6228 22.6088H6.06023V27.7222H2.45576ZM6.06023 19.7378H8.97315C9.71361 19.7378 10.2585 19.5632 10.6077 19.2139C10.971 18.8507 11.1526 18.4036 11.1526 17.8727C11.1526 17.3418 10.971 16.9018 10.6077 16.5525C10.2585 16.2032 9.72059 16.0286 8.99411 16.0286H6.06023V19.7378Z" fill="#323232"/>
<defs>
<clipPath id="clip0_2008_471">
<rect width="29.1366" height="29.1279" fill="white" transform="translate(18.4468 0.402344)"/>
</clipPath>
</defs>
</svg>
